<?xml version="1.0" encoding="UTF-8" standalone="no"?>
<!DOCTYPE svg PUBLIC "-//W3C//DTD SVG 1.1//EN" "http://www.w3.org/Graphics/SVG/1.1/DTD/svg11.dtd">
<svg version="1.1" xmlns="http://www.w3.org/2000/svg" xmlns:xlink="http://www.w3.org/1999/xlink" preserveAspectRatio="xMidYMid meet" viewBox="0 0 640 640" width="640" height="640"><defs><path d="M418.88 216.02L640 248.16L480 404.11L517.77 624.34L320.01 520.37L122.23 624.34L160 404.11L0 248.16L221.12 216.02L320.01 15.66L418.88 216.02Z" id="o15H1lePHk"></path><path d="M630.18 238.8C616.36 236.8 546 228.68 419.1 214.46L157.27 404.52C133.46 528.37 120.38 597.17 118.01 610.93C117.28 615.23 119.05 619.57 122.56 622.14C126.1 624.73 130.79 625.06 134.63 623.01C146.98 616.51 208.78 584.03 320 525.56C431.22 584.03 493 616.51 505.36 623.01C507.03 623.89 508.87 624.32 510.7 624.32C513.07 624.32 515.43 623.59 517.43 622.14C520.96 619.57 522.72 615.23 521.98 610.93C519.62 597.17 507.82 528.37 486.58 404.53C576.56 316.82 626.55 268.09 636.55 258.35C639.67 255.29 640.79 250.74 639.44 246.6C638.08 242.46 634.5 239.43 630.18 238.8Z" id="c16888SwG"></path></defs><g><g><g><use xlink:href="#o15H1lePHk" opacity="1" fill="#efce4a" fill-opacity="1"></use><g><use xlink:href="#o15H1lePHk" opacity="1" fill-opacity="0" stroke="#000000" stroke-width="1" stroke-opacity="0"></use></g></g><g><use xlink:href="#c16888SwG" opacity="1" fill="#000000" fill-opacity="1"></use><g><use xlink:href="#c16888SwG" opacity="1" fill-opacity="0" stroke="#000000" stroke-width="1" stroke-opacity="0"></use></g></g></g></g></svg>